<?xml version="1.0" encoding="UTF-8"?>
<svg id="Layer_1" data-name="Layer 1" xmlns="http://www.w3.org/2000/svg" viewBox="0 0 1080 1080">
  <defs>
    <style>
      .cls-1 {
        fill: #1196f5;
      }

      .cls-2 {
        fill: #001e5c;
      }

      .cls-3 {
        fill: #ffc603;
      }
    </style>
  </defs>
  <path class="cls-1" d="M308.66,507.72s158.31-199.15,332.36-175.68l35.6-51.19s-246.32-9.89-367.96,226.88Z"/>
  <path class="cls-2" d="M494.17,346.61s30.8,41.72,30.85,41.8c2.98,4.04,7.95,5.72,12.6,5.66,3.95-.05,10.57-1.33,9.98-7.06-.57-5.53-8.64-9.36-12.56-12.07-6.51-4.51-13.02-9.02-19.52-13.53-4.95-3.43-9.9-6.86-14.85-10.29-1.8-1.25-5.14-2.67-6.5-4.5Z"/>
  <path class="cls-2" d="M527.96,327.8s38.24,39.23,38.31,39.3c3.7,3.8,9.18,4.79,14.09,3.99,4.17-.68,10.99-3.07,9.59-9.05-1.35-5.75-10.41-8.52-14.92-10.77-7.49-3.74-14.99-7.48-22.48-11.21-5.7-2.84-11.4-5.69-17.11-8.53-2.08-1.04-5.8-2-7.48-3.73Z"/>
  <path class="cls-1" d="M343.46,646.57s-48.53,65.84-59.49,32.03c0,0,8.79,39.28,19.06,46.48"/>
  <path class="cls-3" d="M342.8,648.39s-15.14,121.27,119.3,135.87c0,0-67.26-.08-78.63-3.55,0,0-26.1-5.13-30.97-12.07-4.86-6.93-8.3-8.21-8.87-13.09-.57-4.88-29.15-41.95-29.15-42.98s2.57-11.55,2.57-11.55l9.15-13.61"/>
  <path class="cls-2" d="M466.97,372.92s26.98,36.55,27.03,36.62c2.61,3.54,6.96,5.01,11.04,4.96,3.46-.04,9.26-1.16,8.74-6.19-.5-4.84-7.57-8.2-11-10.57-5.7-3.95-11.4-7.9-17.1-11.85-4.34-3.01-8.68-6.01-13.01-9.02-1.58-1.09-4.5-2.34-5.69-3.94Z"/>
  <path class="cls-2" d="M283.97,678.6s8.07,142.71,183.01,104.38c0,0-166.42,18.25-123.51-136.42,0,0-44.27,96.2-59.49,32.03Z"/>
  <g>
    <g>
      <path class="cls-3" d="M710.12,386.58c-11.89-23.18-32.48-37.97-55.56-43.84,15.1,14.97,61.1,68.72,46.78,156.32h21.19c7.72-37.81,5.76-77.04-12.41-112.48Z"/>
      <path class="cls-3" d="M517.65,764.13c-3.12,1.11-6.11,2.38-8.8,3.95,0,0,3.17-1.32,8.8-3.95Z"/>
      <path class="cls-3" d="M635.15,658.89h-14.95c-28,33.96-64.44,70.39-111.35,109.19,25.83-14.99,32.3-23.04,55.94-41.7,26.29-20.75,49.34-42.93,70.37-67.49Z"/>
      <path class="cls-2" d="M717.17,334.17l53.4,85.32c2.16,28.24-.07,54.76-5.65,79.57h2.76c2.19-6.73,4.32-13.56,6.37-20.5,19.37-65.4,24.15-157.77-43.91-192.49-82.63-42.16-190.89-6.67-264.87,40.44-51.27,32.65-95.3,77.8-129.53,130.24-10.67,16.35-9.65,12.87-18.17,30.63-2.99,6.24-5.09,14.69-8.91,20.34,176.03-260.76,337.96-199.15,337.96-199.15-103.51,11.38-183.94,101.67-183.94,101.67,91.64-78.92,168.78-70.39,168.78-70.39,7.82,0,15.59.97,23.1,2.88-2.88-2.85-4.64-4.3-4.64-4.3l67.25-4.27Z"/>
      <path class="cls-2" d="M517.65,764.13c7.9-2.82,16.71-4.62,24.07-7.5,10.29-4.03,20.45-8.43,30.45-13.24,45.25-21.76,81.5-50.09,111.01-84.5h-12.74c-59.94,58.97-128.78,94.05-152.78,105.24Z"/>
      <path class="cls-2" d="M635.15,658.89c-21.02,24.56-44.08,46.74-70.37,67.49-23.64,18.66-30.11,26.71-55.94,41.7,2.69-1.56,5.68-2.83,8.8-3.95,24-11.2,92.84-46.27,152.78-105.24h-35.28Z"/>
      <path class="cls-2" d="M710.12,386.58c18.17,35.44,20.13,74.67,12.41,112.48h42.39c5.58-24.81,7.81-51.33,5.65-79.57l-53.4-85.32-67.25,4.27s1.76,1.45,4.64,4.3c23.08,5.87,43.67,20.66,55.56,43.84Z"/>
    </g>
    <g>
      <path class="cls-2" d="M59.69,602.87l1.54-7.84h29.4l-.56,2.66c-.19,1.03.05,1.94.7,2.73.65.79,1.49,1.19,2.52,1.19h55.16l-16.38-4.9,1.54-7.56c.19-1.03-.05-1.94-.7-2.73-.65-.79-1.49-1.19-2.52-1.19h-45.36c-2.8,0-5.41-.61-7.84-1.82-2.43-1.21-4.43-2.8-6.02-4.76-1.59-1.96-2.73-4.25-3.43-6.86-.7-2.61-.77-5.32-.21-8.12l4.48-22.82c.84-4.2,2.92-7.65,6.23-10.36,3.31-2.71,7.12-4.06,11.41-4.06h64.68c2.8,0,5.41.61,7.84,1.82,2.43,1.21,4.43,2.8,6.02,4.76,1.59,1.96,2.75,4.22,3.5,6.79.75,2.57.84,5.25.28,8.05l-1.68,7.98h-29.4l.56-2.66c.19-1.03-.05-1.94-.7-2.73-.65-.79-1.49-1.19-2.52-1.19h-55.72l16.24,4.9-1.12,5.88c-.19,1.03.05,1.94.7,2.73.65.79,1.49,1.19,2.52,1.19h43.96l2.66.14c2.71.19,5.16.91,7.35,2.17,2.19,1.26,4.04,2.87,5.53,4.83,1.49,1.96,2.57,4.18,3.22,6.65.65,2.47.7,5.06.14,7.77l-4.9,24.5c-.84,4.2-2.92,7.65-6.23,10.36-3.31,2.71-7.12,4.06-11.41,4.06h-63.98c-2.8,0-5.41-.61-7.84-1.82-2.43-1.21-4.43-2.8-6.02-4.76-1.59-1.96-2.73-4.25-3.43-6.86-.7-2.61-.77-5.32-.21-8.12Z"/>
      <path class="cls-2" d="M201.92,549.25l16.38,4.9-8.68,43.54c-.19,1.03.05,1.94.7,2.73.65.79,1.49,1.19,2.52,1.19h38.36c1.68,0,2.75-.89,3.22-2.66l1.4-7.14h29.4l-3.92,19.46c-.75,3.92-2.61,7.09-5.6,9.52-2.99,2.43-6.44,3.64-10.36,3.64h-72.94c-2.24,0-4.34-.47-6.3-1.4-1.96-.93-3.59-2.22-4.9-3.85-1.31-1.63-2.24-3.48-2.8-5.53-.56-2.05-.61-4.2-.14-6.44l13.58-67.62c.75-3.92,2.61-7.09,5.6-9.52,2.99-2.43,6.44-3.64,10.36-3.64h71.26c2.52,0,4.88.54,7.07,1.61,2.19,1.07,4.04,2.52,5.53,4.34,1.49,1.82,2.57,3.9,3.22,6.23.65,2.33.7,4.76.14,7.28l-2.66,13.16h-29.4l1.26-5.88c.19-1.03-.05-1.94-.7-2.73-.65-.79-1.49-1.19-2.52-1.19h-59.08Z"/>
      <path class="cls-2" d="M371.73,596.71h-35.84l-5.6,27.72h-29.4l19.6-98h94.35c2.61,0,5.02.54,7.21,1.61,2.19,1.07,4.01,2.52,5.46,4.34,1.45,1.82,2.5,3.9,3.15,6.23.65,2.33.75,4.76.28,7.28l-7.56,37.66c-.75,3.83-2.61,6.98-5.6,9.45-2.99,2.47-6.44,3.71-10.36,3.71h-6.3l12.46,27.72h-29.4l-12.46-27.72ZM393.29,573.75c.75,0,1.42-.23,2.03-.7.61-.47,1-1.07,1.19-1.82l3.5-18.06c.19-1.03-.02-1.94-.63-2.73-.61-.79-1.42-1.19-2.45-1.19h-68.88l16.24,4.9-3.92,19.6h52.92Z"/>
      <path class="cls-2" d="M521.24,624.43h-67.9c-2.61,0-5.02-.54-7.21-1.61-2.19-1.07-4.01-2.52-5.46-4.34-1.45-1.82-2.5-3.92-3.15-6.3-.65-2.38-.75-4.83-.28-7.35l15.68-78.4h29.4l-14,70.28-16.38,4.9h55.16c.75,0,1.42-.26,2.03-.77.61-.51,1-1.14,1.19-1.89l14.56-72.52h29.4l-16.94,84.84c-.75,3.92-2.64,7.09-5.67,9.52-3.03,2.43-6.51,3.64-10.43,3.64Z"/>
      <path class="cls-2" d="M652.13,624.43h-27.72l-17.92-78.4h-17.36l16.24,4.9-15.26,73.5h-30.24l19.6-98h53.06l10.64,60.48,30.24-60.48h56.28l-19.6,98h-30.1l14.7-78.4-42.56,78.4Z"/>
      <path class="cls-2" d="M827.68,624.43h-27.72l-17.92-78.4h-17.36l16.24,4.9-15.26,73.5h-30.24l19.6-98h53.06l10.64,60.48,30.24-60.48h56.28l-19.6,98h-30.1l14.7-78.4-42.56,78.4Z"/>
      <path class="cls-2" d="M1026.89,526.43l-48.16,58.8-7.28,39.2h-31.92l6.44-34.3h17.36l-16.38-4.9-31.08-58.8h31.08l17.92,35.98,27.72-35.98h34.3Z"/>
    </g>
  </g>
</svg>