<?xml version="1.0" encoding="UTF-8" standalone="no"?>
<svg
   id="Layer_1"
   data-name="Layer 1"
   viewBox="0 0 1080 1080"
   version="1.1"
   sodipodi:docname="logo_long_light_mode.svg"
   inkscape:export-filename="logo_light_mode.png"
   inkscape:export-xdpi="96"
   inkscape:export-ydpi="96"
   inkscape:version="1.4 (1:1.4+202410161351+e7c3feb100)"
   xmlns:inkscape="http://www.inkscape.org/namespaces/inkscape"
   xmlns:sodipodi="http://sodipodi.sourceforge.net/DTD/sodipodi-0.dtd"
   xmlns="http://www.w3.org/2000/svg"
   xmlns:svg="http://www.w3.org/2000/svg">
  <sodipodi:namedview
     id="namedview22"
     pagecolor="#ffffff"
     bordercolor="#999999"
     borderopacity="1"
     inkscape:showpageshadow="2"
     inkscape:pageopacity="0"
     inkscape:pagecheckerboard="0"
     inkscape:deskcolor="#d1d1d1"
     inkscape:zoom="0.45254834"
     inkscape:cx="541.37863"
     inkscape:cy="417.63494"
     inkscape:window-width="1920"
     inkscape:window-height="925"
     inkscape:window-x="0"
     inkscape:window-y="0"
     inkscape:window-maximized="1"
     inkscape:current-layer="Layer_1" />
  <defs
     id="defs1">
    <style
       id="style1">
      .cls-1 {
        fill: #1196f5;
      }

      .cls-2 {
        fill: #001e5c;
      }

      .cls-3 {
        fill: #ffc603;
      }
    </style>
  </defs>
  <g
     id="g1"
     transform="translate(-5.3166701,-14.995052)">
    <g
       id="g244"
       transform="matrix(0.2683035,0,0,0.2683035,7.3805937,413.2238)">
      <path
         class="cls-1"
         d="m 308.66,507.72 c 0,0 158.31,-199.15 332.36,-175.68 l 35.6,-51.19 c 0,0 -246.32,-9.89 -367.96,226.88 z"
         id="path1" />
      <path
         class="cls-2"
         d="m 494.17,346.61 c 0,0 30.8,41.72 30.85,41.8 2.98,4.04 7.95,5.72 12.6,5.66 3.95,-0.05 10.57,-1.33 9.98,-7.06 -0.57,-5.53 -8.64,-9.36 -12.56,-12.07 -6.51,-4.51 -13.02,-9.02 -19.52,-13.53 -4.95,-3.43 -9.9,-6.86 -14.85,-10.29 -1.8,-1.25 -5.14,-2.67 -6.5,-4.5 z"
         id="path2" />
      <path
         class="cls-2"
         d="m 527.96,327.8 c 0,0 38.24,39.23 38.31,39.3 3.7,3.8 9.18,4.79 14.09,3.99 4.17,-0.68 10.99,-3.07 9.59,-9.05 -1.35,-5.75 -10.41,-8.52 -14.92,-10.77 -7.49,-3.74 -14.99,-7.48 -22.48,-11.21 -5.7,-2.84 -11.4,-5.69 -17.11,-8.53 -2.08,-1.04 -5.8,-2 -7.48,-3.73 z"
         id="path3" />
      <path
         class="cls-1"
         d="m 343.46,646.57 c 0,0 -48.53,65.84 -59.49,32.03 0,0 8.79,39.28 19.06,46.48"
         id="path4" />
      <path
         class="cls-3"
         d="m 342.8,648.39 c 0,0 -15.14,121.27 119.3,135.87 0,0 -67.26,-0.08 -78.63,-3.55 0,0 -26.1,-5.13 -30.97,-12.07 -4.86,-6.93 -8.3,-8.21 -8.87,-13.09 -0.57,-4.88 -29.15,-41.95 -29.15,-42.98 0,-1.03 2.57,-11.55 2.57,-11.55 l 9.15,-13.61"
         id="path5" />
      <path
         class="cls-2"
         d="m 466.97,372.92 c 0,0 26.98,36.55 27.03,36.62 2.61,3.54 6.96,5.01 11.04,4.96 3.46,-0.04 9.26,-1.16 8.74,-6.19 -0.5,-4.84 -7.57,-8.2 -11,-10.57 -5.7,-3.95 -11.4,-7.9 -17.1,-11.85 -4.34,-3.01 -8.68,-6.01 -13.01,-9.02 -1.58,-1.09 -4.5,-2.34 -5.69,-3.94 z"
         id="path6" />
      <g
         id="g243">
        <path
           class="cls-2"
           d="m 283.97,678.6 c 0,0 8.07,142.71 183.01,104.38 0,0 -166.42,18.25 -123.51,-136.42 0,0 -44.27,96.2 -59.49,32.03 z"
           id="path7" />
        <g
           id="g22">
          <g
             id="g14">
            <path
               class="cls-3"
               d="m 710.12,386.58 c -11.89,-23.18 -32.48,-37.97 -55.56,-43.84 15.1,14.97 61.1,68.72 46.78,156.32 h 21.19 c 7.72,-37.81 5.76,-77.04 -12.41,-112.48 z"
               id="path8" />
            <path
               class="cls-3"
               d="m 517.65,764.13 c -3.12,1.11 -6.11,2.38 -8.8,3.95 0,0 3.17,-1.32 8.8,-3.95 z"
               id="path9" />
            <path
               class="cls-3"
               d="M 635.15,658.89 H 620.2 c -28,33.96 -64.44,70.39 -111.35,109.19 25.83,-14.99 32.3,-23.04 55.94,-41.7 26.29,-20.75 49.34,-42.93 70.37,-67.49 z"
               id="path10" />
            <path
               class="cls-2"
               d="m 517.65,764.13 c 7.9,-2.82 16.71,-4.62 24.07,-7.5 10.29,-4.03 20.45,-8.43 30.45,-13.24 45.25,-21.76 81.5,-50.09 111.01,-84.5 l -32.74829,0.15274 C 590.49171,718.01274 541.66,752.94 517.66,764.13 Z"
               id="path12"
               sodipodi:nodetypes="ccccccc" />
            <path
               class="cls-2"
               d="m 635.15,658.89 c -21.02,24.56 -44.08,46.74 -70.37,67.49 -23.64,18.66 -30.11,26.71 -55.94,41.7 2.69,-1.56 5.68,-2.83 8.8,-3.95 24,-11.2 92.84,-46.27 152.78,-105.24 h -35.28 z"
               id="path13" />
            <path
               d="m 646.99414,267.2793 c -63.79874,-0.0529 -130.86336,26.84234 -181.72461,59.23047 -51.27,32.65 -95.2993,77.80023 -129.5293,130.24023 -10.67,16.35 -9.64992,12.87086 -18.16992,30.63086 -2.99,6.24 -5.09015,14.68984 -8.91015,20.33984 176.03,-260.76 337.95898,-199.15039 337.95898,-199.15039 -103.51,11.38 -183.93945,101.66992 -183.93945,101.66992 91.64,-78.92 168.78125,-70.39062 168.78125,-70.39062 7.81523,0 15.5802,0.96926 23.08593,2.87695 -2.86438,-2.83277 -4.62695,-4.28711 -4.62695,-4.28711 0,0 0.0872,0.0742 0.11524,0.0977 0.0816,0.0675 1.73077,1.45657 4.36132,4.04101 0.0508,0.05 0.0989,0.0975 0.15039,0.14844 0.009,0.009 0.005,0.005 0.0137,0.0137 23.08,5.87 43.66859,20.65985 55.55859,43.83985 18.17,35.44 20.13016,74.67047 12.41016,112.48047 h 42.39062 2.75977 c 2.19,-6.73 4.32109,-13.56 6.37109,-20.5 19.37,-65.4 24.14984,-157.77024 -43.91016,-192.49024 -25.82187,-13.175 -54.14705,-18.76695 -83.14648,-18.79101 z"
               style="fill:#001e5c"
               id="path133" />
          </g>
          <g
             id="g21" />
        </g>
      </g>
    </g>
    <g
       id="g245"
       transform="matrix(0.80597906,0,0,0.80597906,63.598747,143.00985)">
      <path
         class="cls-2"
         d="m 203.38108,538.60117 1.54,-7.84 h 29.4 l -0.56,2.66 c -0.19,1.03 0.05,1.94 0.7,2.73 0.65,0.79 1.49,1.19 2.52,1.19 h 55.16 l -16.38,-4.9 1.54,-7.56 c 0.19,-1.03 -0.05,-1.94 -0.7,-2.73 -0.65,-0.79 -1.49,-1.19 -2.52,-1.19 h -45.36 c -2.8,0 -5.41,-0.61 -7.84,-1.82 -2.43,-1.21 -4.43,-2.8 -6.02,-4.76 -1.59,-1.96 -2.73,-4.25 -3.43,-6.86 -0.7,-2.61 -0.77,-5.32 -0.21,-8.12 l 4.48,-22.82 c 0.84,-4.2 2.92,-7.65 6.23,-10.36 3.31,-2.71 7.12,-4.06 11.41,-4.06 h 64.68 c 2.8,0 5.41,0.61 7.84,1.82 2.43,1.21 4.43,2.8 6.02,4.76 1.59,1.96 2.75,4.22 3.5,6.79 0.75,2.57 0.84,5.25 0.28,8.05 l -1.68,7.98 h -29.4 l 0.56,-2.66 c 0.19,-1.03 -0.05,-1.94 -0.7,-2.73 -0.65,-0.79 -1.49,-1.19 -2.52,-1.19 h -55.72 l 16.24,4.9 -1.12,5.88 c -0.19,1.03 0.05,1.94 0.7,2.73 0.65,0.79 1.49,1.19 2.52,1.19 h 43.96 l 2.66,0.14 c 2.71,0.19 5.16,0.91 7.35,2.17 2.19,1.26 4.04,2.87 5.53,4.83 1.49,1.96 2.57,4.18 3.22,6.65 0.65,2.47 0.7,5.06 0.14,7.77 l -4.9,24.5 c -0.84,4.2 -2.92,7.65 -6.23,10.36 -3.31,2.71 -7.12,4.06 -11.41,4.06 h -63.98 c -2.8,0 -5.41,-0.61 -7.84,-1.82 -2.43,-1.21 -4.43,-2.8 -6.02,-4.76 -1.59,-1.96 -2.73,-4.25 -3.43,-6.86 -0.7,-2.61 -0.77,-5.32 -0.21,-8.12 z"
         id="path15-5"
         style="fill:#001e5c" />
      <path
         class="cls-2"
         d="m 345.61108,484.98117 16.38,4.9 -8.68,43.54 c -0.19,1.03 0.05,1.94 0.7,2.73 0.65,0.79 1.49,1.19 2.52,1.19 h 38.36 c 1.68,0 2.75,-0.89 3.22,-2.66 l 1.4,-7.14 h 29.4 l -3.92,19.46 c -0.75,3.92 -2.61,7.09 -5.6,9.52 -2.99,2.43 -6.44,3.64 -10.36,3.64 h -72.94 c -2.24,0 -4.34,-0.47 -6.3,-1.4 -1.96,-0.93 -3.59,-2.22 -4.9,-3.85 -1.31,-1.63 -2.24,-3.48 -2.8,-5.53 -0.56,-2.05 -0.61,-4.2 -0.14,-6.44 l 13.58,-67.62 c 0.75,-3.92 2.61,-7.09 5.6,-9.52 2.99,-2.43 6.44,-3.64 10.36,-3.64 h 71.26 c 2.52,0 4.88,0.54 7.07,1.61 2.19,1.07 4.04,2.52 5.53,4.34 1.49,1.82 2.57,3.9 3.22,6.23 0.65,2.33 0.7,4.76 0.14,7.28 l -2.66,13.16 h -29.4 l 1.26,-5.88 c 0.19,-1.03 -0.05,-1.94 -0.7,-2.73 -0.65,-0.79 -1.49,-1.19 -2.52,-1.19 z"
         id="path16-3"
         style="fill:#001e5c" />
      <path
         class="cls-2"
         d="m 515.42108,532.44117 h -35.84 l -5.6,27.72 h -29.4 l 19.6,-98 h 94.35 c 2.61,0 5.02,0.54 7.21,1.61 2.19,1.07 4.01,2.52 5.46,4.34 1.45,1.82 2.5,3.9 3.15,6.23 0.65,2.33 0.75,4.76 0.28,7.28 l -7.56,37.66 c -0.75,3.83 -2.61,6.98 -5.6,9.45 -2.99,2.47 -6.44,3.71 -10.36,3.71 h -6.3 l 12.46,27.72 h -29.4 l -12.46,-27.72 z m 21.56,-22.96 c 0.75,0 1.42,-0.23 2.03,-0.7 0.61,-0.47 1,-1.07 1.19,-1.82 l 3.5,-18.06 c 0.19,-1.03 -0.02,-1.94 -0.63,-2.73 -0.61,-0.79 -1.42,-1.19 -2.45,-1.19 h -68.88 l 16.24,4.9 -3.92,19.6 z"
         id="path17-5"
         style="fill:#001e5c" />
      <path
         class="cls-2"
         d="m 664.93108,560.16117 h -67.9 c -2.61,0 -5.02,-0.54 -7.21,-1.61 -2.19,-1.07 -4.01,-2.52 -5.46,-4.34 -1.45,-1.82 -2.5,-3.92 -3.15,-6.3 -0.65,-2.38 -0.75,-4.83 -0.28,-7.35 l 15.68,-78.4 h 29.4 l -14,70.28 -16.38,4.9 h 55.16 c 0.75,0 1.42,-0.26 2.03,-0.77 0.61,-0.51 1,-1.14 1.19,-1.89 l 14.56,-72.52 h 29.4 l -16.94,84.84 c -0.75,3.92 -2.64,7.09 -5.67,9.52 -3.03,2.43 -6.51,3.64 -10.43,3.64 z"
         id="path18-6"
         style="fill:#001e5c" />
      <path
         class="cls-2"
         d="m 795.82108,560.16117 h -27.72 l -17.92,-78.4 h -17.36 l 16.24,4.9 -15.26,73.5 h -30.24 l 19.6,-98 h 53.06 l 10.64,60.48 30.24,-60.48 h 56.28 l -19.6,98 h -30.1 l 14.7,-78.4 z"
         id="path19-2"
         style="fill:#001e5c" />
      <path
         class="cls-2"
         d="m 971.37108,560.16117 h -27.72 l -17.92,-78.4 h -17.36 l 16.24,4.9 -15.26,73.5 h -30.24 l 19.6,-98 h 53.06 l 10.64,60.48 30.24,-60.48 h 56.28002 l -19.6,98 h -30.10002 l 14.70002,-78.4 z"
         id="path20-9"
         style="fill:#001e5c" />
      <path
         class="cls-2"
         d="m 1170.5811,462.16117 -48.16,58.8 -7.28,39.2 h -31.92 l 6.44,-34.3 h 17.36 l -16.38,-4.9 -31.08,-58.8 h 31.08 l 17.92,35.98 27.72,-35.98 z"
         id="path21-1"
         style="fill:#001e5c" />
    </g>
  </g>
</svg>
